<svg xmlns="http://www.w3.org/2000/svg" xmlns:xlink="http://www.w3.org/1999/xlink" width="100"
                            height="100" viewBox="0 0 100 100">
                            <defs>
                                <clipPath id="clip-path">
                                    <rect id="Ret칙ngulo_1" data-name="Ret칙ngulo 1" width="100" height="100"
                                        transform="translate(365 215)" fill="#331f1f" stroke="#707070"
                                        stroke-width="1" />
                                </clipPath>
                            </defs>
                            <g id="Grupo_de_m치scara_2" data-name="Grupo de m치scara 2" transform="translate(-365 -215)"
                                clip-path="url(#clip-path)">
                                <g id="predio" transform="translate(364 215)">
                                    <g id="Grupo_2" data-name="Grupo 2">
                                        <g id="Grupo_1" data-name="Grupo 1" transform="translate(1)">
                                            <path id="Caminho_3" data-name="Caminho 3"
                                                d="M71.667,93.333H25A1.667,1.667,0,0,0,23.333,95v3.333a1.667,1.667,0,0,0,3.333,0V96.667h45a1.667,1.667,0,0,0,0-3.333Z"
                                                fill="#f5f5f5" />
                                            <path id="Caminho_4" data-name="Caminho 4"
                                                d="M36.667,41.667a1.667,1.667,0,0,0,1.667,1.667H45a1.667,1.667,0,0,0,1.667-1.667v-10A1.667,1.667,0,0,0,45,30H38.333a1.667,1.667,0,0,0-1.667,1.667v10ZM40,33.333h3.333V40H40Z"
                                                fill="#f5f5f5" />
                                            <path id="Caminho_5" data-name="Caminho 5"
                                                d="M21.667,20h-20A1.667,1.667,0,0,0,0,21.667V55a1.667,1.667,0,0,0,3.333,0V23.333H21.667a1.667,1.667,0,0,0,0-3.333Z"
                                                fill="#f5f5f5" />
                                            <path id="Caminho_6" data-name="Caminho 6"
                                                d="M80,81.667a1.667,1.667,0,0,0,1.667,1.667h6.667A1.667,1.667,0,0,0,90,81.667v-10A1.667,1.667,0,0,0,88.333,70H81.667A1.667,1.667,0,0,0,80,71.667Zm3.333-8.333h3.333V80H83.333Z"
                                                fill="#f5f5f5" />
                                            <path id="Caminho_7" data-name="Caminho 7"
                                                d="M8.333,60C.095,60,0,81.45,0,81.667a8.348,8.348,0,0,0,6.667,8.165v8.5a1.667,1.667,0,0,0,3.333,0v-8.5a8.348,8.348,0,0,0,6.667-8.165C16.667,81.45,16.572,60,8.333,60Zm0,26.667a5.006,5.006,0,0,1-5-5c0-8.3,2.23-18.333,5-18.333s5,10.03,5,18.333A5.006,5.006,0,0,1,8.333,86.667Z"
                                                fill="#f5f5f5" />
                                            <path id="Caminho_8" data-name="Caminho 8"
                                                d="M18.333,50H11.667A1.667,1.667,0,0,0,10,51.667V55a1.667,1.667,0,0,0,3.333,0V53.333h3.333v8.333a1.667,1.667,0,0,0,3.333,0v-10A1.667,1.667,0,0,0,18.333,50Z"
                                                fill="#f5f5f5" />
                                            <path id="Caminho_9" data-name="Caminho 9"
                                                d="M81.667,43.333h6.667A1.667,1.667,0,0,0,90,41.667v-10A1.667,1.667,0,0,0,88.333,30H81.667A1.667,1.667,0,0,0,80,31.667v10A1.667,1.667,0,0,0,81.667,43.333Zm1.667-10h3.333V40H83.333Z"
                                                fill="#f5f5f5" />
                                            <path id="Caminho_10" data-name="Caminho 10"
                                                d="M18.333,30H11.667A1.667,1.667,0,0,0,10,31.667v10a1.667,1.667,0,0,0,1.667,1.667h6.667A1.667,1.667,0,0,0,20,41.667v-10A1.667,1.667,0,0,0,18.333,30ZM16.667,40H13.333V33.333h3.333V40Z"
                                                fill="#f5f5f5" />
                                            <path id="Caminho_11" data-name="Caminho 11"
                                                d="M53.333,41.667A1.667,1.667,0,0,0,55,43.333h6.667a1.667,1.667,0,0,0,1.667-1.667v-10A1.667,1.667,0,0,0,61.667,30H55a1.667,1.667,0,0,0-1.667,1.667v10Zm3.333-8.333H60V40H56.667V33.333Z"
                                                fill="#f5f5f5" />
                                            <path id="Caminho_12" data-name="Caminho 12"
                                                d="M98.333,20h-20a1.667,1.667,0,1,0,0,3.333H96.667V90.307a4.762,4.762,0,0,0-2.523-.232,6.656,6.656,0,0,0-11.62,0A4.9,4.9,0,0,0,81.667,90a5,5,0,0,0,0,10H95a5.006,5.006,0,0,0,5-5V21.667A1.667,1.667,0,0,0,98.333,20ZM95,96.667H81.667a1.667,1.667,0,1,1,0-3.333,1.647,1.647,0,0,1,.9.272A1.667,1.667,0,0,0,85.1,92.58a3.32,3.32,0,0,1,6.473,0A1.667,1.667,0,0,0,94.1,93.605,1.7,1.7,0,0,1,96.667,95,1.67,1.67,0,0,1,95,96.667Z"
                                                fill="#f5f5f5" />
                                            <path id="Caminho_13" data-name="Caminho 13"
                                                d="M55,23.333h6.667a1.667,1.667,0,0,0,1.667-1.667v-10A1.667,1.667,0,0,0,61.667,10H55a1.667,1.667,0,0,0-1.667,1.667v10A1.667,1.667,0,0,0,55,23.333Zm1.667-10H60V20H56.667V13.333Z"
                                                fill="#f5f5f5" />
                                            <path id="Caminho_14" data-name="Caminho 14"
                                                d="M53.333,61.667A1.667,1.667,0,0,0,55,63.333h6.667a1.667,1.667,0,0,0,1.667-1.667v-10A1.667,1.667,0,0,0,61.667,50H55a1.667,1.667,0,0,0-1.667,1.667v10Zm3.333-8.333H60V60H56.667V53.333Z"
                                                fill="#f5f5f5" />
                                            <path id="Caminho_15" data-name="Caminho 15"
                                                d="M38.333,23.333H45a1.667,1.667,0,0,0,1.667-1.667v-10A1.667,1.667,0,0,0,45,10H38.333a1.667,1.667,0,0,0-1.667,1.667v10A1.667,1.667,0,0,0,38.333,23.333Zm1.667-10h3.333V20H40Z"
                                                fill="#f5f5f5" />
                                            <path id="Caminho_16" data-name="Caminho 16"
                                                d="M48.817,80.483a1.667,1.667,0,1,0,2.367,0A1.753,1.753,0,0,0,48.817,80.483Z"
                                                fill="#f5f5f5" />
                                            <path id="Caminho_17" data-name="Caminho 17"
                                                d="M36.667,61.667a1.667,1.667,0,0,0,1.667,1.667H45a1.667,1.667,0,0,0,1.667-1.667v-10A1.667,1.667,0,0,0,45,50H38.333a1.667,1.667,0,0,0-1.667,1.667v10ZM40,53.333h3.333V60H40Z"
                                                fill="#f5f5f5" />
                                            <path id="Caminho_18" data-name="Caminho 18"
                                                d="M33.333,71.667A1.667,1.667,0,0,0,35,73.333h5v15a1.667,1.667,0,0,0,3.333,0v-15H56.667v15a1.667,1.667,0,1,0,3.333,0v-15h5A1.667,1.667,0,0,0,65,70H35A1.667,1.667,0,0,0,33.333,71.667Z"
                                                fill="#f5f5f5" />
                                            <path id="Caminho_19" data-name="Caminho 19"
                                                d="M80,61.667a1.667,1.667,0,0,0,1.667,1.667h6.667A1.667,1.667,0,0,0,90,61.667v-10A1.667,1.667,0,0,0,88.333,50H81.667A1.667,1.667,0,0,0,80,51.667Zm3.333-8.333h3.333V60H83.333Z"
                                                fill="#f5f5f5" />
                                            <path id="Caminho_20" data-name="Caminho 20"
                                                d="M71.667,0H28.333a1.667,1.667,0,0,0-1.667,1.667V88.333a1.667,1.667,0,0,0,3.333,0v-85H70v85a1.667,1.667,0,1,0,3.333,0V1.667A1.667,1.667,0,0,0,71.667,0Z"
                                                fill="#f5f5f5" />
                                        </g>
                                    </g>
                                </g>
                            </g>
                        </svg>