<svg xmlns="http://www.w3.org/2000/svg" xmlns:xlink="http://www.w3.org/1999/xlink" width="100"
                            height="100" viewBox="0 0 100 100">
                            <defs>
                                <clipPath id="clip-path">
                                    <rect id="Ret칙ngulo_1" data-name="Ret칙ngulo 1" width="100" height="100"
                                        transform="translate(80 261)" fill="#d12727" stroke="#707070"
                                        stroke-width="1" />
                                </clipPath>
                            </defs>
                            <g id="Grupo_de_m치scara_4" data-name="Grupo de m치scara 4" transform="translate(-80 -261)"
                                clip-path="url(#clip-path)">
                                <g id="graphics-scale-svgrepo-com" transform="translate(80 261)">
                                    <path id="Caminho_26" data-name="Caminho 26"
                                        d="M21.739,50.584H8.445a3.183,3.183,0,0,0-3.183,3.183V87.074a3.183,3.183,0,0,0,3.183,3.183H21.739a3.183,3.183,0,0,0,3.183-3.183V53.766A3.183,3.183,0,0,0,21.739,50.584ZM18.556,83.891H11.628V56.949h6.928Z"
                                        fill="#f5f5f5" />
                                    <path id="Caminho_27" data-name="Caminho 27"
                                        d="M46.765,32.957H33.472a3.183,3.183,0,0,0-3.183,3.183V87.074a3.183,3.183,0,0,0,3.183,3.183H46.765a3.183,3.183,0,0,0,3.183-3.183V36.14A3.183,3.183,0,0,0,46.765,32.957ZM43.582,83.891H36.654V39.323h6.928V83.891Z"
                                        fill="#f5f5f5" />
                                    <path id="Caminho_28" data-name="Caminho 28"
                                        d="M71.791,53.213H58.5A3.183,3.183,0,0,0,55.315,56.4V87.074A3.183,3.183,0,0,0,58.5,90.257H71.791a3.183,3.183,0,0,0,3.183-3.183V56.4A3.183,3.183,0,0,0,71.791,53.213ZM68.609,83.891H61.68V59.579h6.928Z"
                                        fill="#f5f5f5" />
                                    <path id="Caminho_29" data-name="Caminho 29"
                                        d="M96.818,34.132H83.523a3.183,3.183,0,0,0-3.183,3.183V87.074a3.183,3.183,0,0,0,3.183,3.183H96.817A3.183,3.183,0,0,0,100,87.074V37.315A3.182,3.182,0,0,0,96.818,34.132ZM93.635,83.891H86.706V40.5h6.928V83.891Z"
                                        fill="#f5f5f5" />
                                    <path id="Caminho_30" data-name="Caminho 30"
                                        d="M63.273,39.89A3.183,3.183,0,0,0,67.13,39.8L90.919,20.818l-.105,3.129a3.183,3.183,0,0,0,3.074,3.288l.109,0a3.183,3.183,0,0,0,3.179-3.076l.375-11.128a3.183,3.183,0,0,0-3.288-3.288l-11.128.375a3.183,3.183,0,0,0,.214,6.362l2.921-.1L65.055,33.315,40.929,15.78a3.182,3.182,0,0,0-3.578-.112L1.477,38.453a3.183,3.183,0,1,0,3.413,5.373L38.937,22.2Z"
                                        fill="#f5f5f5" />
                                </g>
                            </g>
                        </svg>