<svg xmlns="http://www.w3.org/2000/svg" xmlns:xlink="http://www.w3.org/1999/xlink" width="100"
                            height="100" viewBox="0 0 100 100">
                            <defs>
                                <clipPath id="clip-path">
                                    <rect id="Ret칙ngulo_1" data-name="Ret칙ngulo 1" width="100" height="100"
                                        transform="translate(320 261)" fill="#d12727" stroke="#707070"
                                        stroke-width="1" />
                                </clipPath>
                            </defs>
                            <g id="Grupo_de_m치scara_2" data-name="Grupo de m치scara 2" transform="translate(-320 -261)"
                                clip-path="url(#clip-path)">
                                <g id="contato" transform="translate(320 261)">
                                    <g id="Grupo_2" data-name="Grupo 2">
                                        <g id="Grupo_1" data-name="Grupo 1">
                                            <path id="Caminho_3" data-name="Caminho 3"
                                                d="M92.556,45.2a20.6,20.6,0,0,0-12-5.785V28.984A29.454,29.454,0,0,0,72.57,8.5,27.482,27.482,0,0,0,52.468,0H48.287a28.593,28.593,0,0,0-20.45,8.475,28.906,28.906,0,0,0-8.39,20.509v10.41a20.225,20.225,0,0,0,.184,40.253,2.082,2.082,0,0,0,1.9,1.23h9.49A2.083,2.083,0,0,0,33.1,78.794V41.625a2.083,2.083,0,0,0-2.083-2.083H24.88c.636-13.736,10.688-24.3,23.407-24.3h4.181c12.559,0,22.493,10.555,23.193,24.3H68.98A2.084,2.084,0,0,0,66.9,41.625V78.794a2.084,2.084,0,0,0,2.083,2.083h7.351C75.076,87.8,70.378,94.11,61.685,94.11H53.523a6.969,6.969,0,1,0-2.265,4.139,2.094,2.094,0,0,0,.324.028h10.1a17.829,17.829,0,0,0,14.252-6.559,22.73,22.73,0,0,0,4.859-13.2,21.106,21.106,0,0,0,11.7-5.17,18.41,18.41,0,0,0,6.2-13.838A19.953,19.953,0,0,0,92.556,45.2ZM19.446,75.438a16.062,16.062,0,0,1,0-31.851Zm27.2,20.395a2.787,2.787,0,1,1,2.787-2.788A2.79,2.79,0,0,1,46.651,95.833ZM28.936,43.708v33H23.613v-33ZM72.291,20.17a25.982,25.982,0,0,0-19.823-9.1H48.287a26.339,26.339,0,0,0-19.911,9,29.742,29.742,0,0,0-4.7,7.168A24.443,24.443,0,0,1,48.287,4.167h4.181c12.409,0,22.329,9.332,23.744,21.749A29.78,29.78,0,0,0,72.291,20.17Zm4.1,56.4v.14H71.063v-33h5.323Zm4.167-2.212V43.608a16.547,16.547,0,0,1,13.973,15.9C94.526,68.061,87.736,73.473,80.553,74.359Z"
                                                fill="#f5f5f5" />
                                            <path id="Caminho_4" data-name="Caminho 4"
                                                d="M12.964,57.434a2.077,2.077,0,0,0,1.473-.61l1.7-1.7a2.083,2.083,0,0,0-2.945-2.947l-1.7,1.7a2.083,2.083,0,0,0,1.473,3.557Z"
                                                fill="#f5f5f5" />
                                            <path id="Caminho_5" data-name="Caminho 5"
                                                d="M12.964,67.6a2.076,2.076,0,0,0,1.473-.61l1.7-1.7a2.083,2.083,0,1,0-2.945-2.947l-1.7,1.7A2.083,2.083,0,0,0,12.964,67.6Z"
                                                fill="#f5f5f5" />
                                            <path id="Caminho_6" data-name="Caminho 6"
                                                d="M86.646,57.531a2.077,2.077,0,0,0,1.478-.615l1.687-1.7a2.083,2.083,0,0,0-2.956-2.936l-1.687,1.7a2.083,2.083,0,0,0,1.478,3.551Z"
                                                fill="#f5f5f5" />
                                            <path id="Caminho_7" data-name="Caminho 7"
                                                d="M86.855,62.45l-1.687,1.7a2.083,2.083,0,0,0,2.957,2.936l1.687-1.7a2.083,2.083,0,0,0-2.957-2.936Z"
                                                fill="#f5f5f5" />
                                        </g>
                                    </g>
                                </g>
                            </g>
                        </svg>