<?xml version="1.0" encoding="iso-8859-1"?>
<!-- Generator: Adobe Illustrator 19.0.0, SVG Export Plug-In . SVG Version: 6.00 Build 0)  -->
<svg version="1.1" id="Layer_1" xmlns="http://www.w3.org/2000/svg" xmlns:xlink="http://www.w3.org/1999/xlink" x="0px" y="0px"
	 viewBox="0 0 480.001 480.001" style="enable-background:new 0 0 480.001 480.001;" xml:space="preserve">
<g>
	<g>
		<g>
			<path d="M444.272,216.944c-15.887-15.564-36.452-25.385-57.616-27.767v-50.054c0-37.477-13.608-72.388-38.318-98.3
				C323.234,14.498,288.967,0,251.848,0h-20.07c-37.264,0-72.125,14.447-98.161,40.681c-25.97,26.168-40.272,61.129-40.272,98.443
				v49.97c-49.566,4.855-87.071,45.521-87.071,96.559c0,51.352,37.953,92.199,87.955,96.656c1.565,3.479,5.055,5.905,9.116,5.905
				h45.552c5.523,0,10-4.478,10-10V199.801c0-5.522-4.477-10-10-10h-29.473c3.053-65.935,51.302-116.656,112.354-116.656h20.07
				c60.282,0,107.967,50.662,111.328,116.656h-32.071c-5.522,0-10,4.478-10,10v178.413c0,5.522,4.478,10,10,10h35.283
				c-6.021,33.214-28.572,63.513-70.3,63.513h-39.176c0.257-1.666,0.391-3.371,0.391-5.107c0-18.403-14.973-33.376-33.377-33.376
				c-18.403,0-33.376,14.973-33.376,33.376c0,18.406,14.973,33.381,33.376,33.381c8.476,0,16.219-3.182,22.112-8.406
				c0.507,0.079,1.023,0.133,1.554,0.133h48.496c27.836,0,51.492-10.888,68.412-31.485c13.822-16.826,21.969-39.108,23.324-63.351
				c20.859-2.331,40.857-11.072,56.138-24.815c19.194-17.265,29.766-40.853,29.766-66.423
				C473.728,259.954,463.267,235.553,444.272,216.944z M93.343,362.104c-38.327-4.76-67.071-36.631-67.071-76.452
				c0-39.81,28.743-71.67,67.071-76.431V362.104z M223.926,460c-7.376,0-13.376-6.003-13.376-13.381c0-7.376,6-13.376,13.376-13.376
				c7.376,0,13.377,6,13.377,13.376C237.303,453.997,231.302,460,223.926,460z M138.895,209.801v158.413h-25.552V209.801H138.895z
				 M346.998,96.814c-24.544-28.161-58.335-43.669-95.15-43.669h-20.07c-36.875,0-70.817,15.336-95.574,43.184
				c-9.154,10.296-16.72,21.892-22.575,34.405C117.776,67.996,168.174,20,231.777,20h20.07c59.562,0,107.18,44.792,113.972,104.395
				C360.621,114.48,354.324,105.219,346.998,96.814z M366.656,367.541v0.673h-25.552V209.801h25.552V367.541z M386.656,356.923
				V209.319c36.731,5.237,67.071,38.662,67.071,76.333C453.728,326.693,421.132,352.671,386.656,356.923z"/>
			<path d="M62.225,275.686c2.558,0,5.116-0.975,7.069-2.927l8.155-8.15c3.906-3.904,3.908-10.235,0.004-14.143
				c-3.905-3.906-10.235-3.909-14.142-0.004l-8.155,8.15c-3.906,3.904-3.908,10.235-0.004,14.143
				C57.105,274.709,59.665,275.686,62.225,275.686z"/>
			<path d="M62.225,324.497c2.559,0,5.117-0.976,7.069-2.928l8.155-8.151c3.906-3.903,3.908-10.235,0.004-14.142
				c-3.905-3.907-10.237-3.909-14.142-0.003l-8.155,8.15c-3.906,3.904-3.908,10.236-0.004,14.143
				C57.105,323.52,59.665,324.497,62.225,324.497z"/>
			<path d="M415.904,276.149c2.57,0,5.141-0.985,7.095-2.953l8.096-8.15c3.893-3.918,3.871-10.25-0.048-14.142
				c-3.918-3.892-10.251-3.87-14.142,0.048l-8.096,8.15c-3.893,3.918-3.871,10.25,0.048,14.142
				C410.808,275.182,413.356,276.149,415.904,276.149z"/>
			<path d="M416.904,299.763l-8.096,8.151c-3.892,3.919-3.87,10.25,0.049,14.143c1.951,1.937,4.499,2.904,7.047,2.904
				c2.57,0,5.141-0.985,7.096-2.953l8.096-8.151c3.891-3.919,3.87-10.251-0.049-14.143
				C427.127,295.823,420.797,295.845,416.904,299.763z"/>
		</g>
	</g>
</g>
<g>
</g>
<g>
</g>
<g>
</g>
<g>
</g>
<g>
</g>
<g>
</g>
<g>
</g>
<g>
</g>
<g>
</g>
<g>
</g>
<g>
</g>
<g>
</g>
<g>
</g>
<g>
</g>
<g>
</g>
</svg>
